Coordinates
version=1
nRows=19
nColumns=24
inDegrees=yes

Units are S.I. units (second, meters, Newtons, ...)
Angles are in degrees.

endheader
time	pelvis_tilt	pelvis_list	pelvis_rotation	pelvis_tx	pelvis_ty	pelvis_tz	hip_flexion_r	hip_adduction_r	hip_rotation_r	knee_angle_r	ankle_angle_r	subtalar_angle_r	mtp_angle_r	hip_flexion_l	hip_adduction_l	hip_rotation_l	knee_angle_l	ankle_angle_l	subtalar_angle_l	mtp_angle_l	lumbar_extension	lumbar_bending	lumbar_rotation
      3.65000000	     -0.11630605	      6.93778980	     -0.36214766	     -0.41702672	      0.93823400	      0.21249806	     26.00397606	     -6.76206063	     -0.19093930	    -70.18483459	      1.84434687	    -20.70823150	      0.00000000	     12.25980335	     13.93182333	      5.39169705	    -22.58761334	     18.89395214	     -9.58306933	      0.00000000	    -11.64132350	     -7.95109971	    -12.58191448
      3.65500000	     -0.10831163	      6.63466452	     -0.05770052	     -0.41017699	      0.93966113	      0.21181810	     26.40936810	     -6.51070222	     -0.40972017	    -68.99752934	      2.40838990	    -20.36475773	      0.00000000	     11.41641102	     13.72040824	      6.04396106	    -22.02837577	     18.88677191	     -9.86759204	      0.00000000	    -11.69932431	     -7.49507346	    -12.78698920
      3.66000000	     -0.09330066	      6.35256214	      0.26810741	     -0.40334751	      0.94102933	      0.21113279	     26.76826665	     -6.29505271	     -0.64678749	    -67.71986049	      2.90551184	    -20.04870702	      0.00000000	     10.56379312	     13.52593033	      6.75334954	    -21.45813733	     18.83425670	    -10.18816734	      0.00000000	    -11.76873753	     -7.06657964	    -13.02686816
      3.66500000	     -0.08098220	      6.09029446	      0.60122394	     -0.39654170	      0.94230455	      0.21047570	     27.09291593	     -6.10249684	     -0.88621219	    -66.35427740	      3.35652027	    -19.76851424	      0.00000000	      9.72355940	     13.34188131	      7.48025088	    -20.89275847	     18.74962410	    -10.54333758	      0.00000000	    -11.83824292	     -6.66967636	    -13.27935936
      3.67000000	     -0.07641738	      5.84446873	      0.94833451	     -0.38973147	      0.94346010	      0.20979630	     27.38669414	     -5.94568292	     -1.15432044	    -64.90353846	      3.77721694	    -19.52263165	      0.00000000	      8.90270063	     13.16812148	      8.19025288	    -20.33673976	     18.65828026	    -10.94113114	      0.00000000	    -11.89255376	     -6.28914688	    -13.53217951
      3.67500000	     -0.07980980	      5.61886689	      1.29982583	     -0.38291915	      0.94449348	      0.20910503	     27.65310852	     -5.81960419	     -1.43200983	    -63.37308291	      4.16886324	    -19.30860552	      0.00000000	      8.09892410	     13.00768007	      8.89580128	    -19.78615903	     18.55542538	    -11.36678879	      0.00000000	    -11.93529842	     -5.92663499	    -13.78912681
      3.68000000	     -0.07900901	      5.41772765	      1.65822870	     -0.37611140	      0.94542594	      0.20843383	     27.87934743	     -5.72383466	     -1.71438009	    -61.76507880	      4.52652053	    -19.11546072	      0.00000000	      7.29593398	     12.86406075	      9.61318973	    -19.23810786	     18.43219299	    -11.83780434	      0.00000000	    -11.97847051	     -5.59957089	    -14.05399728
      3.68500000	     -0.08356565	      5.23677306	      2.01730087	     -0.36927940	      0.94623606	      0.20778195	     28.07479501	     -5.65240093	     -1.99871526	    -60.08286885	      4.86172769	    -18.93822733	      0.00000000	      6.50334973	     12.73126985	     10.32803425	    -18.69391332	     18.30319225	    -12.33455589	      0.00000000	    -12.01004137	     -5.30198019	    -14.31713735
      3.69000000	     -0.08534273	      5.08136596	      2.37405120	     -0.36243907	      0.94693351	      0.20713751	     28.23296591	     -5.60683946	     -2.27364792	    -58.32906945	      5.17984321	    -18.77094249	      0.00000000	      5.71124043	     12.61709651	     11.05238323	    -18.15321410	     18.15811934	    -12.86554895	      0.00000000	    -12.03860474	     -5.02856344	    -14.58349918
      3.69500000	     -0.08762389	      4.94589831	      2.73266408	     -0.35558486	      0.94750737	      0.20650159	     28.35740607	     -5.58771403	     -2.55597461	    -56.50780200	      5.48226700	    -18.60664191	      0.00000000	      4.92373478	     12.51522782	     11.78859609	    -17.61948719	     18.01282939	    -13.42379146	      0.00000000	    -12.06556811	     -4.78251046	    -14.85113990
      3.70000000	     -0.09438928	      4.82831288	      3.08504911	     -0.34871080	      0.94795448	      0.20590772	     28.45329985	     -5.58347482	     -2.83139847	    -54.61981281	      5.77648618	    -18.43246104	      0.00000000	      4.14776931	     12.42042793	     12.52168860	    -17.09820485	     17.87137352	    -13.99469983	      0.00000000	    -12.08085446	     -4.56582968	    -15.11065885
      3.70500000	     -0.10341707	      4.72904936	      3.43183857	     -0.34182259	      0.94827806	      0.20533847	     28.51816760	     -5.59609342	     -3.09977256	    -52.66691909	      6.06463090	    -18.24096729	      0.00000000	      3.38081981	     12.33458939	     13.25551872	    -16.58989670	     17.73668825	    -14.57460734	      0.00000000	    -12.08999185	     -4.37376025	    -15.36929815
      3.71000000	     -0.11621257	      4.64260369	      3.77799656	     -0.33492231	      0.94847641	      0.20480274	     28.55469457	     -5.62457371	     -3.37884587	    -50.65331691	      6.35044975	    -18.02301755	      0.00000000	      2.62722346	     12.25089027	     13.98925729	    -16.09992614	     17.61742868	    -15.15091667	      0.00000000	    -12.09386190	     -4.20556902	    -15.61827128
      3.71500000	     -0.13272109	      4.57435332	      4.10225018	     -0.32798570	      0.94855324	      0.20429145	     28.56305598	     -5.66331893	     -3.63577651	    -48.57951792	      6.64018358	    -17.76324464	      0.00000000	      1.88544350	     12.17681216	     14.70501229	    -15.62837153	     17.51410616	    -15.71908544	      0.00000000	    -12.08328924	     -4.05636384	    -15.86504317
      3.72000000	     -0.15421895	      4.51888884	      4.42377648	     -0.32104629	      0.94851257	      0.20380726	     28.54516919	     -5.71615604	     -3.89763065	    -46.44939784	      6.93336952	    -17.45488551	      0.00000000	      1.16124216	     12.10517676	     15.40544467	    -15.17966764	     17.43461382	    -16.26268657	      0.00000000	    -12.06489068	     -3.92288441	    -16.10251883
      3.72500000	     -0.18108138	      4.47217239	      4.73396838	     -0.31410504	      0.94836040	      0.20337005	     28.50148141	     -5.77181514	     -4.14966147	    -44.26431518	      7.23387846	    -17.08486057	      0.00000000	      0.45592777	     12.03190217	     16.08225582	    -14.75266652	     17.37804403	    -16.78792318	      0.00000000	    -12.04479301	     -3.81329191	    -16.33130729
      3.73000000	     -0.21359119	      4.43613557	      5.03197950	     -0.30715788	      0.94809620	      0.20297747	     28.43465787	     -5.83157185	     -4.38820648	    -42.03247353	      7.54418663	    -16.64966594	      0.00000000	     -0.23186884	     11.95888050	     16.72486646	    -14.34447733	     17.34844666	    -17.28811595	      0.00000000	    -12.01965705	     -3.72292633	    -16.55178452
      3.73500000	     -0.25519957	      4.40692319	      5.31166285	     -0.30019394	      0.94773622	      0.20261754	     28.34929149	     -5.89776554	     -4.63575207	    -39.75381923	      7.85170705	    -16.13864861	      0.00000000	     -0.89605465	     11.88332990	     17.32937280	    -13.96190091	     17.35280645	    -17.72932171	      0.00000000	    -11.98026913	     -3.64500955	    -16.75958083
      3.74000000	     -0.30127853	      4.38689507	      5.57005557	     -0.29321855	      0.94728133	      0.20230311	     28.24560706	     -5.96845261	     -4.88637901	    -37.44180154	      8.16115185	    -15.55683019	      0.00000000	     -1.54367474	     11.80798704	     17.88890662	    -13.59803427	     17.38603963	    -18.12735246	      0.00000000	    -11.93500343	     -3.58343665	    -16.95197352
